<svg xmlns="http://www.w3.org/2000/svg" viewBox="0 0 240 160" width="240" height="160" fill="none">
  <!-- Faded scoreboard rows -->
  <rect x="20" y="20" width="200" height="20" rx="4" fill="#1E293B" opacity="0.5"/>
  <rect x="28" y="27" width="12" height="6" rx="1" fill="#475569" opacity="0.4"/>
  <rect x="48" y="27" width="60" height="6" rx="1" fill="#475569" opacity="0.3"/>
  <rect x="140" y="27" width="40" height="6" rx="1" fill="#475569" opacity="0.2"/>

  <rect x="20" y="48" width="200" height="20" rx="4" fill="#111827" opacity="0.5"/>
  <rect x="28" y="55" width="12" height="6" rx="1" fill="#475569" opacity="0.3"/>
  <rect x="48" y="55" width="60" height="6" rx="1" fill="#475569" opacity="0.2"/>
  <rect x="140" y="55" width="40" height="6" rx="1" fill="#475569" opacity="0.15"/>

  <rect x="20" y="76" width="200" height="20" rx="4" fill="#1E293B" opacity="0.3"/>
  <rect x="28" y="83" width="12" height="6" rx="1" fill="#475569" opacity="0.2"/>
  <rect x="48" y="83" width="60" height="6" rx="1" fill="#475569" opacity="0.15"/>
  <rect x="140" y="83" width="40" height="6" rx="1" fill="#475569" opacity="0.1"/>

  <rect x="20" y="104" width="200" height="20" rx="4" fill="#111827" opacity="0.2"/>

  <!-- Text -->
  <text x="120" y="145" text-anchor="middle" font-family="sans-serif" font-size="12" fill="#475569">No activity yet</text>
</svg>